<?xml version="1.0" standalone="no"?>
<!DOCTYPE svg PUBLIC "-//W3C//DTD SVG 20010904//EN"
 "http://www.w3.org/TR/2001/REC-SVG-20010904/DTD/svg10.dtd">
<svg version="1.0" xmlns="http://www.w3.org/2000/svg"
 width="1000.000000pt" height="1000.000000pt" viewBox="0 0 1000.000000 1000.000000"
 preserveAspectRatio="xMidYMid meet">

<g transform="translate(0.000000,1000.000000) scale(0.100000,-0.100000)"
fill="#000000" stroke="none">
<path d="M4855 8904 c48 -8 115 -9 115 -2 0 5 -30 7 -67 7 -38 -1 -59 -3 -48
-5z"/>
<path d="M5018 8903 c12 -2 32 -2 45 0 12 2 2 4 -23 4 -25 0 -35 -2 -22 -4z"/>
<path d="M5143 8893 c20 -2 54 -2 75 0 20 2 3 4 -38 4 -41 0 -58 -2 -37 -4z"/>
<path d="M5298 8883 c6 -2 18 -2 25 0 6 3 1 5 -13 5 -14 0 -19 -2 -12 -5z"/>
<path d="M4957 8814 c-3 -40 -10 -70 -18 -75 -8 -5 -38 -9 -66 -9 -41 0 -53 4
-53 15 0 8 -4 15 -10 15 -5 0 -10 -6 -10 -14 0 -16 -5 -17 -240 -41 -490 -50
-1015 -245 -1477 -551 -193 -128 -321 -232 -492 -399 -391 -383 -651 -781
-862 -1318 -48 -125 -56 -139 -81 -144 -27 -5 -27 -6 -8 -22 20 -16 20 -18
-19 -186 -21 -93 -44 -195 -50 -226 -12 -56 -13 -57 -56 -68 -79 -20 -83 -80
-5 -67 l43 7 -7 -62 c-3 -34 -6 -215 -6 -403 0 -189 -4 -334 -9 -326 -11 20
-39 254 -41 340 0 34 -3 41 -10 29 -10 -17 -12 -27 -30 -168 -6 -41 -12 -76
-15 -79 -2 -3 -7 14 -11 36 -4 24 -11 39 -16 35 -7 -3 -8 -43 -4 -107 3 -55 8
-139 11 -186 3 -56 2 -78 -4 -64 -21 47 -31 218 -32 534 -1 244 -4 321 -11
285 -13 -67 -4 -607 12 -772 12 -121 12 -135 -3 -151 -10 -10 -17 -28 -17 -39
0 -32 28 -104 54 -138 13 -17 54 -120 90 -229 71 -210 82 -241 182 -468 98
-222 199 -405 332 -598 83 -122 149 -203 293 -361 84 -92 119 -138 128 -169
14 -46 87 -132 133 -156 15 -8 44 -14 64 -14 31 0 49 -11 118 -69 176 -149
535 -364 786 -470 348 -147 617 -222 995 -278 187 -27 673 -25 893 5 327 44
576 106 832 208 377 151 661 311 943 531 81 64 114 84 135 83 52 -4 60 0 122
58 47 43 63 65 64 87 3 43 19 68 101 156 139 148 295 356 440 583 61 97 210
393 260 516 77 191 175 498 175 548 0 8 16 32 36 54 l35 39 -2 112 c-2 62 1
252 6 423 8 319 -4 646 -27 727 -9 28 -8 41 0 49 18 18 15 103 -5 146 l-17 37
-4 -28 c-2 -15 -7 -25 -12 -22 -5 3 -9 62 -9 132 -1 140 -11 191 -41 218 -11
10 -20 15 -20 10 0 -4 -6 -2 -14 4 -11 9 -15 9 -18 0 -7 -20 -28 0 -28 25 0
12 -11 56 -25 97 -29 83 -28 81 -83 199 -21 47 -42 95 -46 106 -9 28 -115 226
-170 318 -24 39 -53 90 -64 112 -12 23 -30 44 -40 47 -12 3 -23 17 -27 35 -7
32 -10 37 -143 212 -105 139 -408 446 -547 556 -132 104 -335 235 -512 331
-66 36 -203 95 -203 88 0 -6 -85 28 -149 58 -25 11 -48 22 -51 22 -3 1 -13 5
-22 8 -39 15 -50 17 -46 8 1 -6 118 -67 258 -137 140 -70 296 -154 345 -187
98 -65 134 -94 70 -57 -22 13 -78 46 -125 73 -88 51 -325 168 -395 194 -22 8
-49 19 -60 23 -47 20 -88 29 -98 23 -6 -4 -7 -1 -2 7 6 10 2 11 -16 7 -27 -7
-71 1 -65 12 2 3 -9 6 -25 7 -16 1 -37 8 -47 16 -9 9 -23 13 -30 11 -7 -3 -24
2 -37 11 -28 18 -39 21 -30 6 7 -11 -23 -3 -41 11 -6 5 -28 11 -50 14 -21 4
-64 13 -94 20 -103 26 -255 54 -379 70 -68 8 -128 18 -132 21 -5 3 -11 -7 -15
-21 -7 -28 -27 -35 -22 -7 4 26 -38 28 -54 3 -15 -25 -28 -27 -28 -6 0 22 -42
35 -116 35 l-64 0 0 69 c0 64 -7 81 -34 81 -2 0 -6 -30 -9 -66z m-217 -235
c-19 -4 -39 -5 -45 -1 -14 9 35 20 60 13 15 -4 12 -7 -15 -12z m-82 3 c9 -6
-1 -13 -30 -23 l-43 -14 60 -5 c33 -3 62 -2 65 1 23 29 191 18 223 -14 12 -12
36 -21 61 -22 81 -5 188 -31 198 -49 5 -9 14 -14 19 -11 5 4 7 11 4 16 -4 5 5
9 19 9 14 0 28 -5 31 -10 4 -6 15 -3 29 7 l23 18 -28 12 c-28 12 -37 36 -21
59 11 16 119 1 177 -26 43 -20 47 -24 30 -31 -11 -4 -45 -8 -75 -9 l-55 -1 45
-14 c84 -24 135 -34 145 -25 15 11 86 -2 115 -23 21 -15 23 -20 12 -37 -16
-26 -15 -28 6 -32 11 -2 13 -6 5 -11 -6 -4 -31 8 -57 28 -54 41 -76 45 -76 11
0 -30 -44 -50 -95 -42 -23 4 -34 2 -30 -4 3 -5 14 -10 23 -10 9 0 35 -19 57
-41 l40 -41 -27 -23 c-15 -12 -33 -25 -40 -27 -19 -7 8 -38 33 -38 11 0 19 -4
19 -9 0 -12 -90 -7 -98 7 -9 14 -98 52 -121 52 -10 0 -30 9 -44 20 -14 11 -49
23 -78 28 -39 5 -55 12 -57 25 -4 22 44 43 64 26 10 -8 15 -5 20 16 3 14 4 28
2 31 -3 2 -27 0 -54 -6 -40 -9 -59 -21 -106 -70 -38 -41 -61 -58 -72 -54 -17
7 -22 -11 -6 -21 6 -4 3 -16 -10 -32 -11 -14 -20 -32 -20 -39 0 -8 -6 -14 -12
-14 -7 0 -24 -9 -38 -20 -26 -21 -60 -27 -60 -11 0 6 4 12 10 16 5 3 19 20 32
38 l22 32 -40 -35 c-21 -19 -56 -44 -77 -55 -20 -11 -37 -22 -37 -26 0 -3 47
-4 104 -1 70 3 105 1 110 -7 5 -8 -14 -11 -63 -11 -38 0 -93 -5 -121 -11 -45
-10 -50 -13 -50 -37 -1 -35 -28 -70 -60 -74 -25 -4 -25 -4 8 -21 36 -19 42
-37 13 -37 -10 0 -21 -7 -25 -15 -3 -8 -14 -15 -25 -15 -11 0 -21 -5 -23 -12
-7 -19 -73 27 -107 74 -17 23 -34 57 -37 76 -7 38 -33 52 -93 52 -88 0 -105
-1 -109 -5 -10 -10 6 -15 67 -21 66 -7 80 -16 61 -39 -8 -10 -9 -15 -2 -15 6
0 31 -26 57 -57 25 -32 60 -73 78 -90 17 -18 29 -33 25 -33 -14 0 -104 42
-120 56 -24 23 -156 75 -213 86 -81 15 -144 20 -162 14 -26 -11 -10 -16 77
-26 110 -13 196 -42 288 -99 71 -44 102 -75 71 -70 -31 5 -121 -15 -126 -27
-3 -8 -11 -14 -18 -14 -8 0 -42 -12 -77 -26 -59 -25 -89 -49 -130 -106 -32
-43 -18 -3 17 50 19 29 32 59 29 67 -5 11 1 15 20 15 14 0 34 4 44 9 9 5 26
12 37 16 15 5 16 8 6 14 -14 9 -11 56 4 56 6 1 21 7 35 15 l25 14 -25 7 c-39
11 -92 10 -85 -1 3 -5 -1 -10 -9 -10 -9 0 -16 -8 -16 -19 0 -23 -16 -37 -53
-46 -18 -5 -27 -3 -27 5 0 6 -4 9 -9 6 -16 -10 -41 5 -41 25 0 23 -10 24 -48
2 -25 -14 -34 -15 -57 -5 -26 12 -27 15 -20 58 l7 46 -23 -16 c-24 -16 -109
-23 -109 -8 0 4 16 23 35 42 36 37 40 47 26 68 -6 11 -15 10 -44 -5 -38 -19
-48 -33 -22 -33 8 0 15 5 15 11 0 5 5 7 12 3 9 -6 9 -9 0 -12 -12 -4 -62 -100
-62 -119 0 -5 -13 -30 -30 -56 -27 -43 -28 -47 -10 -47 12 0 20 7 20 17 0 24
40 63 64 63 21 1 21 1 -1 13 -15 8 -19 17 -14 26 9 15 51 6 51 -10 0 -6 14
-24 30 -41 17 -16 30 -33 30 -37 0 -5 -24 -12 -52 -17 l-53 -8 65 -6 c63 -5
65 -6 62 -31 -2 -14 4 -31 12 -38 12 -10 18 -5 34 33 20 44 21 45 59 39 21 -3
54 -9 73 -13 33 -8 33 -8 -16 -9 -59 -1 -67 -6 -51 -31 8 -14 8 -25 -3 -47
-13 -27 -14 -27 -18 -6 -3 22 -4 22 -40 5 -20 -9 -38 -20 -40 -24 -2 -5 -9 -8
-17 -8 -7 0 -19 -10 -27 -22 -14 -21 -17 -21 -55 -9 -34 11 -45 11 -69 0 -27
-13 -29 -19 -37 -98 -6 -56 -5 -87 2 -94 8 -8 41 -8 114 1 l102 11 250 126
c137 69 257 132 265 140 9 8 21 15 26 15 5 0 105 48 223 107 l213 107 217
-109 c274 -137 423 -216 418 -221 -2 -2 -73 32 -158 76 -216 112 -430 217
-456 225 -16 4 -77 -22 -222 -96 -110 -55 -209 -110 -220 -120 -12 -12 -21
-31 -20 -47 1 -18 3 -21 6 -9 7 27 427 230 456 221 12 -3 110 -52 217 -109
107 -56 263 -138 345 -180 159 -83 197 -105 178 -105 -7 0 -14 4 -18 9 -3 5
-21 8 -40 6 -21 -2 -35 1 -35 8 0 7 -4 7 -12 -2 -11 -10 -9 -15 6 -26 11 -8
31 -25 45 -38 28 -24 59 -44 156 -98 l60 -34 468 -3 c257 -1 467 -5 467 -7 0
-3 -17 -21 -39 -40 -66 -60 -89 -102 -100 -188 -7 -49 -11 -316 -11 -704 0
-345 -2 -624 -5 -622 -2 3 -7 284 -11 624 -6 588 -2 726 22 788 3 9 2 17 -2
17 -13 0 -54 -76 -54 -98 0 -11 -15 -31 -34 -46 -19 -14 -41 -33 -50 -42 -10
-10 -16 -11 -16 -3 0 9 -4 8 -15 -1 -8 -7 -15 -22 -15 -34 0 -17 -2 -18 -10
-6 -7 12 -12 8 -23 -18 -7 -18 -16 -29 -20 -25 -4 3 -7 0 -7 -8 0 -11 -2 -11
-10 1 -7 12 -10 8 -11 -15 0 -23 -2 -26 -8 -12 -6 17 -8 16 -20 -7 -8 -14 -18
-23 -23 -20 -13 9 -37 -15 -53 -53 -10 -24 -22 -35 -44 -39 -16 -4 -32 -12
-35 -20 -8 -20 -26 -17 -26 3 0 15 -1 15 -12 1 -8 -9 -26 -15 -43 -14 -16 1
-38 -2 -47 -7 -13 -5 -18 -3 -18 8 0 13 -4 14 -22 4 -16 -8 -23 -9 -26 -1 -2
6 -11 8 -19 5 -12 -5 -15 -2 -10 11 4 10 2 16 -6 15 -27 -3 -35 2 -40 31 -9
42 -46 64 -527 309 -228 117 -422 219 -431 227 -14 12 -45 -2 -275 -125 -143
-76 -364 -193 -492 -260 -154 -82 -232 -128 -232 -139 0 -13 4 -12 23 5 12 12
45 32 72 45 28 13 95 48 150 78 55 29 177 93 270 143 195 103 256 136 375 200
l86 46 29 -18 c51 -30 135 -76 265 -144 212 -109 654 -348 664 -358 10 -9 9
-289 -1 -349 -6 -34 -5 -34 13 -19 10 9 87 51 169 93 83 43 154 82 159 87 37
36 37 41 34 -913 l-3 -923 -23 -55 c-12 -31 -39 -72 -59 -92 -39 -37 -530
-335 -783 -475 -30 -17 -143 -81 -251 -142 -109 -61 -203 -111 -210 -111 -12
0 -95 46 -359 195 -41 23 -129 73 -195 110 -594 336 -701 408 -763 514 -23 40
-27 58 -31 170 -4 83 -7 111 -11 81 -4 -33 -9 -44 -20 -41 -30 7 -82 7 -87 -2
-2 -4 -30 -7 -61 -6 -32 1 -66 -1 -77 -4 -49 -16 -47 -53 -53 969 -4 528 -9
894 -12 814 -3 -80 -7 -596 -8 -1148 l-2 -1003 27 -24 28 -25 -32 11 c-45 15
-63 40 -70 98 -5 45 -7 49 -19 34 -7 -10 -14 -13 -14 -8 0 6 -4 4 -9 -4 -6
-10 -12 -4 -21 23 -6 20 -18 39 -25 44 -12 6 -15 110 -16 647 -1 613 -6 832
-16 821 -10 -10 -34 24 -27 36 6 10 4 10 -8 0 -11 -9 -18 -10 -23 -2 -22 35
-25 -34 -25 -462 1 -253 -1 -462 -3 -464 -4 -4 -17 1304 -18 1816 l0 295 105
3 c98 2 106 4 106 22 0 19 -7 20 -130 20 l-130 0 0 -1342 c0 -738 -2 -1339 -4
-1337 -2 2 -5 614 -7 1359 l-4 1355 374 0 373 0 -4 107 -4 106 -35 28 c-19 16
-55 50 -81 77 -48 50 -61 50 -52 1 3 -16 6 -44 8 -63 2 -35 18 -51 31 -32 11
18 25 12 25 -10 0 -15 5 -19 15 -15 20 7 19 -8 -1 -28 -14 -14 -18 -14 -45 0
-36 18 -69 69 -69 106 0 71 -53 111 -89 67 -20 -25 -32 -23 -156 21 -47 17
-67 20 -91 12 -38 -11 -57 -3 -44 18 6 8 10 18 10 22 0 9 -57 5 -105 -6 l-30
-7 23 18 c13 10 51 34 85 53 69 40 83 60 41 60 -26 0 -26 1 -10 19 26 29 126
78 175 85 24 4 57 14 73 22 28 14 29 17 15 31 -14 15 -21 14 -76 -6 -57 -21
-161 -39 -161 -29 0 8 111 84 159 108 40 20 85 35 180 60 19 5 37 12 40 17 14
19 54 35 61 24 7 -12 7 -12 153 60 74 37 102 60 42 35 -21 -9 -49 -16 -64 -16
-15 0 -32 -5 -38 -11 -6 -6 -19 -9 -29 -7 -16 4 -14 7 11 18 17 8 39 24 50 37
25 28 174 83 226 83 30 0 50 8 79 31 49 39 178 77 335 99 44 6 114 17 155 24
92 17 121 18 138 8z m596 -11 c6 -10 -60 -45 -84 -45 -30 -1 -176 15 -195 21
l-20 6 20 8 c34 13 110 10 131 -6 10 -8 33 -14 49 -14 l30 -1 -25 20 -25 20
57 0 c31 0 59 -4 62 -9z m534 -133 c17 -5 32 -13 32 -18 0 -5 3 -17 7 -27 3
-10 3 -15 -2 -11 -4 4 -19 1 -34 -6 -25 -14 -28 -12 -59 24 -17 21 -32 41 -32
44 0 8 50 5 88 -6z m158 -43 c12 -8 24 -11 28 -7 4 3 4 -2 0 -13 -7 -17 -6
-18 8 -7 14 11 22 8 57 -26 45 -43 49 -52 26 -52 -8 0 -15 5 -15 10 0 6 -11
10 -25 10 -15 0 -40 7 -57 16 -17 9 -39 14 -49 11 -21 -6 -31 15 -23 49 7 28
21 30 50 9z m-99 -61 c-3 -3 -12 -4 -19 -1 -8 3 -5 6 6 6 11 1 17 -2 13 -5z
m373 -25 c0 -5 -4 -9 -10 -9 -5 0 -10 7 -10 16 0 8 5 12 10 9 6 -3 10 -10 10
-16z m-285 1 c3 -5 2 -10 -4 -10 -5 0 -13 5 -16 10 -3 6 -2 10 4 10 5 0 13 -4
16 -10z m-160 -10 c-8 -13 -35 -13 -55 0 -11 7 -5 10 23 10 23 0 36 -4 32 -10z
m250 -20 c10 -12 38 -29 62 -40 24 -10 45 -25 47 -32 2 -7 10 -34 18 -59 14
-45 14 -47 -9 -69 -21 -20 -31 -22 -98 -18 -62 4 -73 3 -64 -9 7 -7 31 -13 56
-13 31 0 43 -4 40 -12 -3 -9 -23 -12 -62 -10 -42 2 -65 -2 -84 -15 -14 -10
-29 -16 -33 -15 -5 1 -8 -2 -8 -8 0 -5 -11 -10 -24 -10 -13 0 -29 -7 -36 -15
-13 -16 -50 -21 -50 -7 0 5 9 18 20 30 11 12 20 24 20 28 0 4 10 18 22 31 21
23 21 23 2 37 -19 14 -19 15 1 22 11 4 38 22 61 41 22 18 58 36 80 41 54 11
57 41 11 87 -33 33 -33 35 -13 35 13 0 31 -9 41 -20z m-845 -50 c0 -5 -12 -10
-26 -10 -14 0 -23 4 -19 10 3 6 15 10 26 10 10 0 19 -4 19 -10z m380 -10 c0
-10 -26 -20 -33 -13 -3 3 -3 11 0 18 5 14 33 9 33 -5z m0 -100 c0 -5 -15 -10
-32 -9 -28 0 -30 2 -13 9 28 12 45 12 45 0z m-494 -35 c9 -21 -14 -45 -42 -45
-28 0 -32 21 -8 44 20 20 43 20 50 1z m1390 3 c4 -6 2 -14 -4 -16 -7 -2 -12
-13 -12 -24 0 -14 -5 -18 -16 -14 -9 3 -20 6 -25 6 -17 0 -9 30 9 31 10 0 12
3 5 6 -7 2 -13 9 -13 14 0 13 48 11 56 -3z m749 -81 c30 -27 60 -58 66 -70 7
-12 -15 3 -47 33 -32 31 -77 71 -99 89 -34 29 -35 31 -8 15 18 -11 57 -41 88
-67z m-1572 36 c51 -25 69 -39 90 -76 18 -30 27 -59 26 -84 -1 -37 -1 -37 -8
-8 -19 76 -68 132 -144 164 -38 17 -70 21 -146 21 -107 0 -248 -29 -267 -55
-6 -8 -22 -16 -35 -17 -18 -2 -24 2 -24 16 0 15 12 22 55 32 30 7 82 20 115
28 41 11 93 15 167 12 93 -3 115 -7 171 -33z m1025 -1 c2 -7 -6 -12 -21 -12
-16 0 -26 7 -30 19 -4 16 -1 18 21 12 14 -4 27 -12 30 -19z m-1563 -47 c0 -19
-7 -34 -20 -42 -24 -15 -79 -17 -70 -3 3 6 19 10 35 10 16 0 32 5 35 10 4 6
-6 10 -24 10 -16 0 -33 -4 -36 -10 -11 -18 -25 -10 -25 15 0 19 7 27 33 34 54
16 72 10 72 -24z m402 -2 c29 -7 39 -34 17 -50 -9 -6 -44 -18 -78 -26 -33 -8
-70 -18 -81 -22 -18 -6 -18 -5 3 13 50 45 5 43 -95 -3 -53 -25 -80 -32 -88
-25 -7 6 -26 7 -42 4 -17 -3 -41 -1 -54 6 -22 12 -22 13 -3 27 46 35 167 84
199 81 19 -1 38 1 42 6 8 7 134 0 180 -11z m1149 -13 c6 -6 11 -28 11 -50 0
-35 -3 -40 -22 -40 -24 0 -131 65 -155 95 -14 18 -12 18 69 11 47 -4 90 -11
97 -16z m103 -41 c15 -34 9 -48 -14 -29 -15 13 -21 60 -7 60 4 0 13 -14 21
-31z m-3839 -47 c0 -13 -23 -32 -39 -32 -11 0 -10 4 4 20 19 21 35 26 35 12z
m2829 -136 c-9 -8 -10 -7 -5 7 3 10 7 33 8 50 1 28 2 28 5 -7 3 -22 -1 -43 -8
-50z m1628 68 c3 -8 0 -21 -6 -27 -10 -9 -16 -8 -26 7 -8 10 -12 23 -9 27 9
15 34 10 41 -7z m-380 -33 c-3 -15 -1 -33 5 -39 13 -13 4 -42 -13 -42 -6 0 -9
9 -6 20 3 12 -1 33 -9 48 -19 36 -18 42 7 42 18 0 21 -4 16 -29z m-49 -38 c-2
-27 -6 -47 -11 -45 -14 5 -63 -63 -75 -105 -19 -64 -32 -62 -32 4 0 40 6 68
20 91 11 18 20 38 20 45 0 21 39 57 61 57 18 0 20 -6 17 -47z m-4038 4 c0 -30
-10 -40 -26 -26 -10 8 -11 16 -3 30 14 26 29 24 29 -4z m1185 -27 c-3 -5 -10
-10 -16 -10 -5 0 -9 5 -9 10 0 6 7 10 16 10 8 0 12 -4 9 -10z m-1180 -19 c22
-5 49 -22 61 -37 l22 -26 44 26 c26 15 61 26 84 27 182 3 214 -3 214 -40 0
-31 -25 -44 -72 -36 -63 11 -119 8 -160 -10 -21 -8 -51 -15 -67 -15 -30 0 -30
-1 -26 -46 3 -25 9 -54 15 -64 5 -10 10 -30 10 -44 0 -20 -6 -27 -27 -32 -51
-11 -98 -27 -103 -34 -5 -8 -27 -13 -45 -11 -6 0 -9 16 -7 34 2 24 -2 35 -16
44 -18 10 -20 8 -26 -19 -3 -17 -15 -37 -26 -45 -26 -18 -26 -36 0 -28 25 8
26 -7 0 -30 -10 -9 -25 -42 -31 -72 -7 -30 -17 -57 -23 -59 -115 -39 -125 -45
-128 -77 -4 -42 -34 -49 -48 -11 -6 15 -22 40 -35 56 -29 34 -31 59 -9 93 12
18 13 29 5 42 -10 17 -10 16 -11 -4 0 -15 -8 -23 -29 -28 -16 -3 -37 -18 -46
-31 -16 -24 -15 -26 9 -51 31 -31 36 -90 9 -99 -10 -3 -26 -10 -35 -15 -10 -5
-27 -9 -39 -9 -19 0 -21 3 -13 33 5 17 8 60 7 95 -2 56 0 62 18 62 15 0 20 6
17 23 -3 21 -7 22 -70 20 -38 -1 -68 2 -68 6 0 5 9 20 21 35 17 21 29 26 66
26 36 0 44 3 39 15 -4 11 2 15 28 15 36 0 49 12 89 80 40 70 125 158 177 185
26 13 50 33 53 44 8 30 82 36 172 12z m3235 -21 c0 -6 -29 -10 -67 -10 -48 0
-64 3 -53 10 20 13 120 13 120 0z m880 -34 c0 -8 -15 -16 -38 -20 -23 -3 -55
-20 -80 -42 -28 -23 -42 -31 -42 -21 0 29 13 48 49 72 40 28 111 35 111 11z
m-3590 -28 c24 -40 25 -57 3 -65 -22 -9 -53 31 -53 68 0 40 25 38 50 -3z m150
8 c0 -3 -4 -8 -10 -11 -5 -3 -10 -1 -10 4 0 6 5 11 10 11 6 0 10 -2 10 -4z
m3464 -57 c26 -21 35 -49 15 -49 -6 0 -9 -9 -6 -20 3 -12 -1 -23 -10 -29 -21
-11 -53 -2 -53 15 0 23 -20 16 -32 -12 -11 -23 -13 -24 -19 -7 -15 36 -9 65
20 94 35 34 49 36 85 8z m-1393 -75 c17 -8 29 -18 26 -20 -3 -3 -20 4 -38 15
-40 25 -31 28 12 5z m1445 -50 c-8 -20 -36 -17 -36 4 0 28 22 46 33 26 5 -8 6
-22 3 -30z m-1365 10 c17 -8 29 -18 26 -20 -3 -3 -20 4 -38 15 -40 25 -31 28
12 5z m489 -16 c0 -13 -23 -5 -28 10 -2 7 2 10 12 6 9 -3 16 -11 16 -16z m156
-1 c4 -4 -7 -7 -24 -7 -19 0 -35 -7 -41 -17 -10 -17 -10 -17 -11 -1 0 29 54
47 76 25z m-508 -56 c24 -12 42 -24 40 -27 -6 -6 -116 55 -125 69 -4 7 4 5 17
-4 14 -9 45 -26 68 -38z m613 -41 c269 0 489 -3 489 -7 0 -11 -1027 0 -1037
11 -5 5 6 6 26 2 18 -3 253 -6 522 -6z m-4155 -106 c-16 -11 -22 -11 -28 -1
-11 17 22 41 36 26 8 -7 5 -15 -8 -25z m3651 30 c-3 -3 -12 -4 -19 -1 -8 3 -5
6 6 6 11 1 17 -2 13 -5z m-3177 -144 c0 -5 -9 -10 -21 -10 -18 0 -20 -5 -17
-37 3 -30 9 -38 28 -43 21 -5 18 -7 -21 -19 -24 -8 -38 -16 -31 -18 6 -3 12
-9 12 -14 0 -4 -6 -6 -14 -3 -10 4 -16 -4 -21 -25 -4 -18 -15 -33 -26 -36 -27
-9 -33 -1 -20 23 14 27 14 65 0 79 -8 8 -3 13 19 18 23 5 31 13 36 35 6 35 76
80 76 50z m-282 -86 c32 -9 27 -35 -18 -90 -56 -68 -68 -127 -20 -96 22 14 39
-3 21 -21 -19 -19 -12 -57 16 -81 31 -27 24 -49 -13 -40 -28 7 -31 -1 -8 -23
14 -14 18 -14 45 6 21 15 34 19 42 13 8 -6 33 -6 70 1 44 8 60 8 70 -2 9 -10
5 -18 -23 -41 -36 -30 -60 -38 -60 -20 0 6 -4 10 -10 10 -5 0 -10 -7 -10 -15
0 -8 -7 -15 -16 -15 -11 0 -15 -6 -11 -19 3 -12 -1 -22 -11 -26 -21 -8 -27 2
-12 20 10 12 10 15 -4 15 -9 0 -16 5 -16 11 0 5 10 9 22 7 11 -2 23 3 25 10 3
7 -4 12 -15 12 -31 0 -52 -11 -52 -26 0 -8 -10 -14 -23 -14 -34 0 -41 -12 -19
-30 11 -8 23 -32 26 -52 l7 -38 -37 0 c-28 0 -35 -3 -30 -15 7 -19 -11 -19
-30 -1 -19 20 -18 40 2 32 20 -8 54 2 54 15 0 5 -24 9 -52 10 -48 0 -50 2 -25
11 29 11 35 23 13 31 -11 4 -13 25 -9 99 3 51 7 95 9 97 2 3 10 -1 16 -7 19
-19 30 -14 26 11 -2 17 -10 23 -39 25 -23 2 -40 -2 -49 -12 -10 -13 -10 -16 5
-16 9 0 15 -6 12 -12 -5 -17 -49 -11 -64 9 -10 13 -14 13 -33 0 -17 -12 -18
-15 -5 -20 8 -4 15 -18 15 -32 0 -22 -3 -25 -20 -20 -12 4 -38 4 -60 0 -30 -5
-43 -14 -58 -39 -21 -35 -58 -50 -87 -34 -15 9 -15 11 1 29 13 14 15 22 6 31
-6 6 -8 24 -5 40 5 23 3 27 -11 22 -25 -10 -29 19 -12 80 18 61 58 116 86 116
10 0 25 -11 34 -25 22 -33 58 -32 102 2 24 18 34 33 32 47 -5 34 -42 32 -68
-3 -26 -37 -40 -39 -40 -6 0 25 14 34 110 68 45 16 165 22 208 11z m92 -20 c0
-39 -47 -77 -52 -41 -6 53 -4 57 28 57 15 0 24 -6 24 -16z m4688 -28 c5 -25
-14 -44 -30 -28 -7 7 -21 12 -32 12 -19 0 -19 1 -1 20 22 25 58 23 63 -4z
m-4776 -88 c-15 -15 -26 -4 -18 18 5 13 9 15 18 6 9 -9 9 -15 0 -24z m285 -65
c-13 -13 -197 -17 -210 -4 -19 19 2 26 96 31 66 4 96 2 106 -7 8 -7 12 -16 8
-20z m-265 -23 c-6 -44 -22 -47 -22 -6 0 23 5 36 13 36 9 0 12 -10 9 -30z
m115 -57 c6 -2 13 6 15 19 2 13 10 23 18 23 22 0 25 -37 4 -52 -24 -18 -94
-17 -94 1 0 7 -10 16 -22 19 -18 5 -19 8 -8 22 7 9 21 13 31 10 9 -3 21 0 25
7 6 9 10 4 14 -16 3 -16 10 -31 17 -33z m92 2 c14 -8 4 -25 -15 -25 -10 0 -14
11 -13 38 0 31 2 33 9 16 5 -12 13 -25 19 -29z m4726 35 c3 -5 -3 -10 -14 -10
-12 0 -21 5 -21 10 0 6 6 10 14 10 8 0 18 -4 21 -10z m-4905 -56 c0 -8 -5 -12
-10 -9 -6 4 -8 11 -5 16 9 14 15 11 15 -7z m-234 -41 c-10 -10 -19 5 -10 18 6
11 8 11 12 0 2 -7 1 -15 -2 -18z m-406 -170 c0 -10 -10 -38 -22 -63 -18 -37
-22 -41 -25 -23 -6 33 16 103 32 103 8 0 15 -8 15 -17z m390 -3 c0 -5 -7 -10
-16 -10 -8 0 -12 5 -9 10 3 6 10 10 16 10 5 0 9 -4 9 -10z m465 -26 c-16 -14
-42 -37 -57 -50 -14 -13 -31 -24 -36 -24 -17 0 -72 -51 -72 -66 0 -8 -12 -27
-26 -42 -61 -63 -144 -224 -144 -279 0 -16 5 -20 20 -16 11 3 18 9 15 13 -5 8
27 20 53 20 16 0 15 -15 -3 -34 -9 -9 -11 -17 -5 -21 5 -3 10 -13 10 -21 0
-12 -10 -13 -49 -8 -30 4 -56 2 -70 -5 -23 -13 -19 -36 5 -27 7 3 16 1 19 -3
6 -11 -30 -21 -82 -21 l-42 0 5 48 c2 26 13 72 23 102 32 96 34 112 14 106
-10 -3 -25 -1 -33 4 -12 8 -12 10 3 16 9 3 27 4 39 1 12 -3 30 -1 40 4 15 8
13 0 -12 -47 -30 -56 -66 -161 -58 -169 2 -2 14 -2 26 2 17 4 22 13 22 39 0
18 5 46 11 61 26 65 50 112 64 123 18 15 20 30 4 30 -6 0 -24 10 -41 21 -36
26 -54 15 -39 -23 14 -37 3 -41 -31 -13 -38 32 -52 31 -86 -3 -15 -16 -35 -31
-45 -35 -25 -9 -21 -20 24 -64 l40 -40 -7 -157 c-4 -86 -10 -156 -14 -156 -4
0 -11 28 -14 62 -8 70 -13 81 -28 72 -7 -4 -6 -9 2 -14 9 -5 8 -19 -5 -56 -19
-56 -21 -88 -12 -194 6 -69 5 -73 -8 -44 -7 17 -20 36 -28 42 -12 10 -16 8
-21 -13 -9 -34 -41 -33 -60 3 -8 15 -23 36 -35 46 -24 22 -27 58 -6 76 19 16
62 5 77 -19 11 -17 12 -17 29 0 26 26 24 29 -13 30 -18 1 -44 4 -58 8 -20 6
-22 8 -8 13 9 4 26 27 37 53 11 25 27 48 35 51 20 8 21 24 1 24 -8 0 -16 5
-16 10 -2 14 -5 22 -13 43 -11 23 -1 58 25 91 22 28 37 30 82 11 12 -5 17 -3
17 8 0 31 -30 47 -84 47 -44 0 -58 -5 -80 -26 -16 -17 -26 -22 -26 -13 -1 10
-5 8 -15 -5 -16 -22 -11 -24 -91 46 -23 19 -47 38 -55 40 -11 4 -9 11 9 27 12
12 22 26 22 30 0 5 25 34 55 65 31 31 49 56 42 56 -8 0 -42 -31 -76 -70 -71
-79 -109 -94 -96 -37 4 17 8 46 9 62 2 31 25 63 89 125 25 25 35 43 31 54 -5
13 1 16 29 16 25 0 44 -8 66 -29 l32 -30 67 35 c37 18 75 34 85 34 10 0 27
-15 38 -34 11 -19 30 -37 42 -40 38 -9 116 -93 123 -132 3 -19 10 -34 15 -34
5 0 26 24 48 53 71 93 126 144 195 181 79 42 103 46 61 10z m4487 -222 c3 -11
2 -57 -3 -103 -4 -46 -8 -119 -8 -161 -1 -42 -5 -80 -11 -83 -6 -4 -10 35 -10
109 l0 115 -27 3 c-27 3 -28 5 -31 71 l-3 67 44 0 c35 0 46 -4 49 -18z m-4464
-78 c2 -21 -4 -40 -21 -60 -13 -16 -29 -38 -35 -49 -10 -17 -11 -17 -12 -3 0
11 -5 15 -15 12 -10 -4 -15 0 -15 14 0 12 -4 24 -10 27 -5 3 -10 17 -10 30 0
33 46 67 84 63 27 -3 31 -8 34 -34z m-1068 -18 c0 -15 -24 -66 -31 -66 -12 0
-11 27 1 51 9 16 30 27 30 15z m126 -27 c10 -12 38 -35 62 -51 43 -30 51 -52
32 -89 -15 -27 -60 -47 -96 -42 l-30 5 1 -94 c1 -51 4 -100 6 -108 3 -11 -4
-15 -26 -15 l-29 0 1 90 c1 50 2 108 2 130 0 23 10 69 21 104 11 35 20 70 20
77 0 20 14 17 36 -7z m456 -24 c-3 -20 -7 -23 -18 -14 -20 16 -17 39 5 39 14
0 17 -6 13 -25z m4901 -35 c3 -13 0 -20 -9 -20 -8 0 -14 9 -14 20 0 11 4 20 9
20 5 0 11 -9 14 -20z m-4557 -30 c27 -29 45 -40 66 -40 25 0 29 -4 26 -22 -3
-22 -8 -23 -92 -26 l-89 -3 6 52 c6 49 20 79 38 79 4 0 25 -18 45 -40z m4868
-53 c9 -15 7 -21 -8 -33 -30 -21 -36 -17 -36 22 0 28 4 35 16 32 9 -2 22 -11
28 -21z m920 -24 c-17 -27 -34 -27 -34 0 0 27 19 40 35 25 6 -5 6 -14 -1 -25z
m-834 -23 c-20 -13 -40 -13 -40 0 0 6 12 10 28 10 21 0 24 -2 12 -10z m-1030
-14 c0 -2 -12 -11 -27 -20 l-28 -17 24 20 c23 21 31 25 31 17z m1110 -6 c12
-7 12 -12 -4 -29 -12 -14 -21 -43 -25 -83 l-6 -63 -49 -6 c-41 -4 -50 -2 -53
12 -4 14 -9 16 -23 7 -35 -22 -50 -3 -50 61 0 52 3 61 26 75 14 10 35 16 47
15 12 -1 29 1 37 4 42 17 81 19 100 7z m-5190 -10 c0 -5 -7 -10 -15 -10 -8 0
-15 5 -15 10 0 6 7 10 15 10 8 0 15 -4 15 -10z m66 -17 c-10 -10 -19 5 -10 18
6 11 8 11 12 0 2 -7 1 -15 -2 -18z m5404 7 c0 -5 -10 -10 -22 -10 -19 0 -20 2
-8 10 19 13 30 13 30 0z m-5160 -20 c0 -5 -4 -10 -10 -10 -5 0 -10 5 -10 10 0
6 5 10 10 10 6 0 10 -4 10 -10z m4410 0 c0 -5 -4 -10 -9 -10 -6 0 -13 5 -16
10 -3 6 1 10 9 10 9 0 16 -4 16 -10z m-4410 -40 c0 -5 -4 -10 -10 -10 -5 0
-10 5 -10 10 0 6 5 10 10 10 6 0 10 -4 10 -10z m5725 -157 c17 -146 19 -230 5
-198 -5 11 -9 45 -10 75 0 30 -7 102 -15 160 -17 125 -17 130 -4 108 5 -10 16
-75 24 -145z m-5805 126 c0 -5 6 -7 13 -3 9 5 9 4 1 -5 -11 -12 -44 -5 -44 10
0 5 7 9 15 9 8 0 15 -5 15 -11z m-53 -5 c-3 -3 -12 -4 -19 -1 -8 3 -5 6 6 6
11 1 17 -2 13 -5z m5308 -13 c7 -12 -12 -24 -25 -16 -11 7 -4 25 10 25 5 0 11
-4 15 -9z m-320 -92 c3 -3 -16 -14 -42 -24 -27 -9 -67 -28 -90 -40 -28 -15
-40 -18 -36 -9 7 19 -21 18 -37 -2 -8 -8 -20 -19 -29 -24 -13 -7 -16 -1 -17
33 -1 23 -3 49 -5 57 -8 32 224 40 256 9z m-387 14 c-10 -2 -28 -2 -40 0 -13
2 -5 4 17 4 22 1 32 -1 23 -4z m-5362 -28 c21 -14 71 -105 76 -140 3 -18 -4
-20 -58 -23 -34 -2 -83 1 -110 5 -46 8 -49 10 -60 51 -7 23 -20 52 -28 64 -24
34 -20 56 12 61 45 6 146 -5 168 -18z m342 4 c-2 -6 -8 -10 -13 -10 -5 0 -11
4 -13 10 -2 6 4 11 13 11 9 0 15 -5 13 -11z m5761 2 c11 -7 9 -12 -10 -22 -13
-6 -30 -20 -37 -31 -7 -10 -19 -18 -26 -18 -7 0 -23 -11 -36 -25 -13 -14 -29
-25 -36 -25 -22 0 -27 20 -10 39 9 10 16 20 16 22 0 11 -54 3 -58 -8 -2 -7 1
-13 7 -13 6 0 11 -9 11 -20 0 -11 -5 -20 -11 -20 -6 0 -8 -8 -4 -19 7 -22 -19
-41 -54 -41 -17 0 -21 6 -21 32 0 17 7 40 17 50 13 14 6 13 -30 -7 -66 -34
-148 -18 -84 17 12 7 25 12 28 11 3 -1 12 9 19 22 14 25 107 62 133 52 8 -3
20 -2 26 3 18 11 143 12 160 1z m-654 -28 c-7 -18 -13 -40 -14 -55 -1 -5 -5
-8 -11 -8 -11 0 -14 63 -3 73 14 15 35 7 28 -10z m-368 -29 c6 -16 -12 -34
-34 -34 -7 0 -13 11 -13 25 0 18 5 25 20 25 11 0 23 -7 27 -16z m-4942 -24 c3
-5 2 -10 -4 -10 -5 0 -13 5 -16 10 -3 6 -2 10 4 10 5 0 13 -4 16 -10z m4602
-57 c-3 -10 -5 -4 -5 12 0 17 2 24 5 18 2 -7 2 -21 0 -30z m807 2 c-4 -8 -10
-12 -15 -9 -11 6 -2 24 11 24 5 0 7 -7 4 -15z m156 5 c0 -5 -9 -10 -21 -10
-11 0 -17 5 -14 10 3 6 13 10 21 10 8 0 14 -4 14 -10z m400 -40 c0 -5 -4 -10
-10 -10 -5 0 -10 5 -10 10 0 6 5 10 10 10 6 0 10 -4 10 -10z m-730 -41 c0 -11
-4 -18 -10 -14 -5 3 -7 12 -3 20 7 21 13 19 13 -6z m455 10 c30 0 35 -2 20 -8
-32 -13 -271 -23 -259 -11 17 17 95 29 149 25 28 -3 68 -5 90 -6z m-555 -9 c0
-5 -5 -10 -11 -10 -5 0 -7 5 -4 10 3 6 8 10 11 10 2 0 4 -4 4 -10z m880 -5
c-7 -8 -17 -15 -22 -15 -6 0 -5 7 2 15 7 8 17 15 22 15 6 0 5 -7 -2 -15z
m-6137 -10 c28 -4 36 -10 29 -18 -15 -20 1 -62 26 -65 14 -2 22 2 22 12 0 26
20 28 29 3 6 -14 19 -34 30 -44 12 -11 24 -33 27 -50 l6 -31 -68 5 c-118 7
-133 11 -148 42 -8 15 -22 33 -31 41 -12 10 -15 28 -14 67 2 52 3 54 28 49 14
-3 43 -7 64 -11z m619 -4 c75 -12 131 -39 136 -65 3 -15 0 -17 -20 -10 -56 19
-236 -6 -275 -38 -17 -14 -35 0 -28 23 4 10 -1 29 -9 41 -18 25 -21 58 -6 58
5 0 21 -12 35 -27 14 -15 25 -23 25 -17 0 5 -6 16 -12 22 -10 10 -10 15 2 23
15 10 25 9 152 -10z m-376 -16 c-22 -20 -26 -32 -26 -80 0 -42 -3 -55 -15 -55
-11 0 -15 13 -15 53 0 55 10 76 45 95 34 19 39 13 11 -13z m-401 5 c3 -5 -3
-10 -15 -10 -12 0 -18 5 -15 10 3 6 10 10 15 10 5 0 12 -4 15 -10z m1055 -8
c0 -4 -25 -21 -55 -37 -48 -26 -57 -28 -65 -15 -19 30 -11 39 36 38 25 0 51 5
57 11 13 13 27 15 27 3z m4767 -28 c7 -19 -28 -68 -52 -73 -19 -3 -45 23 -45
45 0 38 84 62 97 28z m528 -54 c4 -6 -6 -10 -22 -10 -39 0 -47 -8 -78 -65
l-26 -50 6 40 c8 50 49 95 86 95 15 0 31 -4 34 -10z m-1532 -7 c-7 -2 -19 -2
-25 0 -7 3 -2 5 12 5 14 0 19 -2 13 -5z m-3930 -16 c4 -10 -6 -13 -34 -11 -27
1 -42 -3 -49 -15 -5 -9 -10 -13 -10 -10 0 4 -36 -1 -80 -10 -45 -10 -83 -15
-85 -11 -6 10 66 57 96 63 57 10 157 7 162 -6z m4797 -63 c46 -17 84 -44 63
-44 -7 0 -14 4 -18 9 -3 5 -47 19 -99 31 -72 17 -98 19 -114 11 -32 -17 -47
-14 -31 5 11 14 27 16 84 11 38 -3 90 -13 115 -23z m-5300 1 c0 -8 14 -17 38
-21 45 -8 59 -18 78 -58 l15 -31 -25 28 c-28 31 -41 36 -26 10 5 -10 19 -39
29 -64 l19 -47 -25 -5 c-47 -9 -87 26 -111 95 -26 74 -28 108 -7 108 8 0 15
-7 15 -15z m565 5 c3 -5 1 -10 -4 -10 -6 0 -11 5 -11 10 0 6 2 10 4 10 3 0 8
-4 11 -10z m4930 0 c3 -5 -1 -10 -9 -10 -9 0 -16 5 -16 10 0 6 4 10 9 10 6 0
13 -4 16 -10z m-4917 -44 c21 -20 30 -34 22 -34 -57 4 -70 -2 -70 -30 0 -15
-6 -34 -12 -41 -10 -11 -10 -14 0 -18 6 -3 12 -11 12 -18 0 -7 32 -32 70 -55
39 -24 69 -44 67 -47 -2 -2 -36 12 -75 30 -68 33 -124 40 -119 15 1 -6 -8 -12
-20 -14 -12 -2 -28 -5 -35 -6 -7 -2 -12 3 -10 10 1 7 -5 15 -14 19 -27 10 6
23 63 23 28 0 55 5 58 10 4 6 -25 10 -81 10 -73 0 -85 2 -75 14 9 11 6 21 -16
47 -15 19 -31 36 -35 37 -5 2 -8 12 -8 22 0 11 -8 20 -22 22 -12 2 -23 8 -25
15 -4 12 31 15 220 21 64 2 69 0 105 -32z m-992 -78 c7 -69 0 -84 -35 -73 -12
4 -22 23 -30 60 -12 52 -11 57 11 83 21 26 24 27 35 12 7 -10 15 -46 19 -82z
m377 30 c9 -39 14 -74 11 -77 -3 -3 -14 5 -24 19 -10 14 -47 38 -82 55 -69 34
-90 65 -41 65 15 0 36 -7 46 -15 16 -12 21 -11 38 6 10 10 23 19 27 19 4 0 15
-32 25 -72z m257 52 c0 -5 -4 -10 -10 -10 -5 0 -10 5 -10 10 0 6 5 10 10 10 6
0 10 -4 10 -10z m5270 0 c0 -5 -4 -10 -10 -10 -5 0 -10 5 -10 10 0 6 5 10 10
10 6 0 10 -4 10 -10z m-100 -30 c0 -5 -4 -10 -10 -10 -5 0 -10 5 -10 10 0 6 5
10 10 10 6 0 10 -4 10 -10z m-5760 -55 c0 -8 -4 -15 -10 -15 -5 0 -10 7 -10
15 0 8 5 15 10 15 6 0 10 -7 10 -15z m5800 5 c0 -5 -4 -10 -10 -10 -5 0 -10 5
-10 10 0 6 5 10 10 10 6 0 10 -4 10 -10z m-5750 -60 c0 -5 -7 -10 -16 -10 -8
0 -12 5 -9 10 3 6 10 10 16 10 5 0 9 -4 9 -10z m5410 -22 c0 -23 -3 -29 -9
-19 -8 12 -4 51 5 51 2 0 4 -15 4 -32z m55 22 c3 -5 1 -10 -4 -10 -6 0 -11 5
-11 10 0 6 2 10 4 10 3 0 8 -4 11 -10z m-4831 -41 c14 -17 26 -38 26 -47 -1
-11 -9 -4 -23 18 -12 19 -28 35 -36 35 -8 0 -16 6 -18 13 -9 24 26 12 51 -19z
m311 1 c3 -5 2 -10 -4 -10 -5 0 -13 5 -16 10 -3 6 -2 10 4 10 5 0 13 -4 16
-10z m5757 -170 l-10 -55 -1 65 c0 36 3 90 7 120 l7 55 3 -65 c1 -36 -1 -90
-6 -120z m-6234 108 c60 -70 43 -74 -26 -5 -43 43 -52 57 -37 56 11 0 39 -23
63 -51z m5562 42 c-8 -5 -22 -10 -30 -10 -13 0 -13 1 0 10 8 5 22 10 30 10 13
0 13 -1 0 -10z m-5973 -6 c-3 -3 -12 -4 -19 -1 -8 3 -5 6 6 6 11 1 17 -2 13
-5z m6183 -78 c0 -11 -19 -15 -25 -6 -3 5 1 10 9 10 9 0 16 -2 16 -4z m-6248
-51 c9 9 40 -34 33 -44 -17 -28 -95 7 -95 43 0 31 21 39 41 15 9 -10 19 -16
21 -14z m411 -42 c-7 -2 -21 -2 -30 0 -10 3 -4 5 12 5 17 0 24 -2 18 -5z
m5457 3 c0 -11 -19 -15 -25 -6 -3 5 1 10 9 10 9 0 16 -2 16 -4z m-5323 -22
c-3 -3 -12 -4 -19 -1 -8 3 -5 6 6 6 11 1 17 -2 13 -5z m4213 -10 c0 -2 -9 -4
-20 -4 -11 0 -20 4 -20 9 0 5 9 7 20 4 11 -3 20 -7 20 -9z m-4520 -15 c10 -5
-8 -9 -47 -9 -60 0 -78 -10 -50 -27 6 -4 22 -6 35 -4 12 1 22 -2 22 -8 0 -6 6
-11 13 -11 13 0 67 -63 67 -79 0 -5 6 -11 13 -14 7 -3 2 -9 -13 -15 l-25 -11
24 -7 c22 -7 23 -10 17 -60 -6 -51 -16 -83 -35 -114 -6 -8 -13 -40 -16 -70 -3
-30 -10 -61 -14 -69 -15 -24 -72 -3 -125 44 -49 44 -49 45 -31 65 18 19 18 20
-1 21 -50 3 -42 -7 -106 119 -15 29 -25 57 -22 61 3 5 21 9 40 9 39 0 39 -1
19 45 -8 20 -17 60 -20 89 -6 52 -5 55 17 58 41 6 223 -4 238 -13z m1455 -79
c-3 -5 -42 -10 -86 -10 -49 0 -79 -4 -79 -11 0 -5 5 -7 10 -4 6 3 10 1 10 -4
0 -6 -13 -11 -30 -11 -16 0 -30 4 -30 9 0 5 -3 16 -6 25 -5 14 8 16 106 16 71
0 109 -4 105 -10z m4905 -10 c0 -5 -4 -10 -10 -10 -5 0 -10 5 -10 10 0 6 5 10
10 10 6 0 10 -4 10 -10z m-5000 -14 c0 -9 -30 -14 -35 -6 -4 6 3 10 14 10 12
0 21 -2 21 -4z m-1140 -37 c8 -15 7 -19 -3 -19 -8 0 -17 11 -19 25 -6 27 6 24
22 -6z m230 16 c7 -9 10 -18 7 -21 -7 -8 -47 14 -47 26 0 15 26 12 40 -5z
m-700 -41 c0 -2 -9 -4 -21 -4 -11 0 -18 4 -14 10 5 8 35 3 35 -6z m619 0 c2
-2 -26 -4 -63 -4 -39 0 -65 4 -61 9 5 9 114 4 124 -5z m-1031 -26 c-6 -17 -38
-23 -38 -8 0 6 5 8 10 5 6 -3 10 -1 10 4 0 6 5 11 11 11 6 0 9 -6 7 -12z
m1145 -13 c15 -3 38 1 52 7 19 8 31 8 50 0 44 -20 27 -28 -67 -30 -122 -4
-198 6 -198 24 0 12 13 13 68 9 37 -3 79 -8 95 -10z m188 -2 c12 -15 12 -16
-4 -10 -10 4 -23 7 -28 7 -5 0 -9 5 -9 10 0 16 26 12 41 -7z m84 -39 c19 -16
19 -16 -5 -9 -31 9 -50 25 -29 25 7 0 23 -8 34 -16z m-1240 -44 c-3 -5 -14
-10 -23 -10 -15 0 -15 2 -2 10 20 13 33 13 25 0z m1573 -12 c19 -19 14 -52
-10 -72 -39 -33 -74 11 -47 60 13 26 38 31 57 12z m616 -119 c-26 -29 -185
-151 -190 -146 -4 3 196 167 205 167 2 0 -4 -10 -15 -21z m-737 -61 c-3 -8 -6
-5 -6 6 -1 11 2 17 5 13 3 -3 4 -12 1 -19z m433 -108 c163 -97 394 -237 495
-300 75 -47 692 -401 805 -462 19 -11 44 -25 55 -31 11 -7 31 -18 43 -26 13
-7 22 -15 19 -17 -4 -5 -119 57 -327 176 -36 21 -96 55 -134 76 -38 22 -92 52
-120 68 -223 126 -1028 616 -1051 639 -11 11 -11 11 215 -123z m320 30 c-92
-86 -145 -123 -84 -59 32 34 166 149 174 149 3 0 -38 -40 -90 -90z m-2260 -6
c0 -14 6 -37 14 -52 7 -15 16 -45 19 -67 5 -32 2 -26 -17 26 -32 89 -41 134
-27 125 6 -4 11 -18 11 -32z m5200 -48 c0 -2 -8 -10 -17 -17 -16 -13 -17 -12
-4 4 13 16 21 21 21 13z m-3309 -155 c30 -24 64 -48 77 -54 22 -10 22 -12 -29
-59 -28 -26 -57 -48 -63 -48 -6 0 11 20 39 45 30 28 45 48 40 54 -6 5 -63 50
-127 99 l-117 91 -33 -32 c-57 -56 -62 -65 -47 -84 13 -15 12 -15 -11 -3 -14
7 -27 14 -29 16 -2 2 22 30 54 63 l57 60 67 -52 c37 -29 92 -72 122 -96z m654
89 c-10 -17 -156 -123 -161 -117 -3 2 26 28 64 56 39 28 75 58 82 66 14 17 26
13 15 -5z m2295 16 c0 -2 -8 -10 -17 -17 -16 -13 -17 -12 -4 4 13 16 21 21 21
13z m1835 -35 c3 -5 1 -12 -5 -16 -5 -3 -10 1 -10 9 0 18 6 21 15 7z m-1911
-16 c-10 -8 -23 -15 -28 -15 -6 0 -1 7 10 15 10 8 23 15 28 15 6 0 1 -7 -10
-15z m-4682 -99 c27 -71 33 -93 21 -81 -10 10 -63 149 -63 163 1 12 22 -30 42
-82z m4638 79 c0 -2 -10 -9 -22 -15 -22 -11 -22 -10 -4 4 21 17 26 19 26 11z
m1920 -74 c0 -6 -4 -13 -10 -16 -5 -3 -10 1 -10 9 0 9 5 16 10 16 6 0 10 -4
10 -9z m-2076 -26 c-10 -8 -23 -15 -28 -15 -6 0 -1 7 10 15 10 8 23 15 28 15
6 0 1 -7 -10 -15z m-54 -30 c-7 -8 -17 -15 -22 -15 -6 0 -5 7 2 15 7 8 17 15
22 15 6 0 5 -7 -2 -15z m-425 -25 c-3 -5 -11 -10 -16 -10 -6 0 -7 5 -4 10 3 6
11 10 16 10 6 0 7 -4 4 -10z m355 -15 c-7 -8 -18 -15 -24 -15 -6 0 -2 7 8 15
25 19 32 19 16 0z m2160 10 c0 -2 -9 -24 -19 -47 -11 -24 -23 -52 -26 -63 -5
-13 -9 -15 -12 -7 -3 6 5 32 16 55 12 24 21 49 21 55 0 7 5 12 10 12 6 0 10
-2 10 -5z m-5622 -51 c20 -6 4 -24 -22 -24 -34 0 -87 21 -80 31 5 8 68 4 102
-7z m3402 7 c0 -5 -7 -12 -16 -15 -14 -5 -15 -4 -4 9 14 17 20 19 20 6z
m-4235 -44 c8 -20 13 -37 10 -37 -6 0 -35 64 -35 76 0 13 9 -1 25 -39z m1046
11 c4 -35 7 -55 14 -80 5 -21 3 -29 -10 -34 -24 -10 -32 4 -39 69 -6 53 -5 57
14 57 11 0 21 -6 21 -12z m3129 -3 c0 -2 -10 -10 -22 -16 -21 -11 -22 -11 -9
4 13 16 31 23 31 12z m-75 -45 c-3 -5 -12 -10 -18 -10 -7 0 -6 4 3 10 19 12
23 12 15 0z m2280 -42 c-27 -64 -55 -117 -65 -123 -5 -3 -10 -4 -10 -1 0 4 60
122 74 144 14 23 15 11 1 -20z m-6347 -3 c-3 -3 -9 2 -12 12 -6 14 -5 15 5 6
7 -7 10 -15 7 -18z m4002 6 c0 -5 -7 -12 -16 -15 -24 -9 -28 -7 -14 9 14 17
30 20 30 6z m-69 -41 c-13 -11 -28 -20 -35 -20 -6 0 0 9 14 20 33 26 52 25 21
0z m-2751 -26 c0 -8 9 -14 21 -14 20 0 21 -4 16 -44 -15 -104 -59 -129 -81
-46 -6 18 -5 21 3 10 8 -12 11 -12 17 4 5 13 2 23 -10 31 -9 7 -14 19 -10 29
4 10 0 18 -10 22 -25 9 -19 22 12 26 33 5 42 1 42 -18z m-345 4 c18 -8 22 -14
13 -20 -20 -12 -54 -9 -67 5 -21 26 10 35 54 15z m200 -2 c18 -13 18 -14 -4
-25 -22 -12 -61 -7 -61 9 0 8 28 29 41 30 3 0 14 -6 24 -14z m404 -12 c-16
-19 -79 -19 -79 0 0 9 12 16 33 18 46 5 60 -1 46 -18z m-1399 -19 c0 -5 -5 -3
-10 5 -5 8 -10 20 -10 25 0 6 5 3 10 -5 5 -8 10 -19 10 -25z m3821 15 c-25
-21 -46 -27 -36 -9 6 9 41 27 55 28 3 0 -6 -9 -19 -19z m-2587 -16 c9 -24 7
-124 -2 -124 -20 0 -36 57 -33 118 1 25 26 30 35 6z m1922 -13 c-4 -5 -30 -28
-59 -51 l-52 -42 54 51 c53 50 68 61 57 42z m595 -12 c-13 -11 -27 -17 -30
-13 -7 7 28 34 43 34 6 -1 0 -10 -13 -21z m-70 -40 c-13 -11 -27 -17 -30 -13
-7 7 28 34 43 34 6 -1 0 -10 -13 -21z m2518 -45 c-18 -31 -35 -52 -37 -46 -2
6 4 22 12 36 9 14 23 38 32 52 31 51 25 15 -7 -42z m-6161 31 c-3 -3 -9 2 -12
12 -6 14 -5 15 5 6 7 -7 10 -15 7 -18z m3572 -25 c-14 -10 -27 -16 -30 -13 -6
6 30 33 44 33 6 0 0 -9 -14 -20z m-60 -35 c-7 -8 -20 -15 -29 -15 -13 1 -13 3
3 15 26 19 42 19 26 0z m-2334 -36 c8 -13 -46 -31 -73 -24 -21 5 -30 24 -19
36 8 8 86 -3 92 -12z m2260 -5 c-30 -21 -45 -16 -16 6 14 10 27 16 30 13 3 -2
-4 -11 -14 -19z m-2211 7 c7 -12 -12 -24 -25 -16 -11 7 -4 25 10 25 5 0 11 -4
15 -9z m4875 -36 c-7 -9 -15 -13 -18 -10 -3 2 1 11 8 20 7 9 15 13 18 10 3 -2
-1 -11 -8 -20z m-2734 -10 c-26 -19 -42 -19 -26 0 7 8 20 15 29 15 13 -1 13
-3 -3 -15z m-70 -40 c-26 -19 -42 -19 -26 0 7 8 20 15 29 15 13 -1 13 -3 -3
-15z m2764 -10 c-7 -9 -15 -13 -18 -10 -3 2 1 11 8 20 7 9 15 13 18 10 3 -2
-1 -11 -8 -20z m-2907 -21 c9 -4 17 -10 17 -15 0 -14 -13 -10 -40 12 -14 11
-18 18 -10 15 8 -3 23 -9 33 -12z m71 -9 c-18 -14 -44 -20 -44 -10 0 7 54 34
59 29 3 -2 -4 -11 -15 -19z m2803 -27 c-9 -13 -33 -48 -54 -78 -79 -117 -161
-219 -258 -319 -88 -90 -213 -201 -228 -201 -3 0 38 42 91 93 173 165 268 276
396 460 26 37 52 67 58 67 6 0 4 -10 -5 -22z m-4820 -29 l28 -11 -25 -10 c-25
-9 -156 -2 -175 11 -25 16 133 25 172 10z m315 -226 c10 -9 18 -26 18 -37 0
-12 7 -40 15 -63 8 -23 19 -66 24 -95 5 -29 16 -78 24 -108 42 -158 58 -243
48 -253 -5 -5 -27 -10 -48 -11 -36 -1 -38 1 -51 42 l-14 42 -66 0 c-37 0 -72
-4 -78 -8 -6 -4 -23 -25 -37 -48 -18 -30 -34 -43 -57 -48 -71 -14 -74 -5 -31
88 39 83 103 236 136 321 57 151 78 195 93 195 3 0 14 -7 24 -17z m1718 8 c-8
-5 -33 -12 -55 -15 l-40 -6 40 14 c48 17 79 20 55 7z m1740 -46 c15 -8 39 -31
52 -52 19 -32 23 -51 23 -123 0 -70 -4 -91 -22 -120 -26 -39 -24 -55 18 -135
33 -64 36 -80 13 -89 -52 -20 -79 -1 -117 81 -49 106 -67 105 -67 -3 l0 -74
-44 0 c-43 0 -44 0 -47 38 -2 20 -2 134 1 252 l5 215 50 11 c70 17 101 16 135
-1z m-3127 -31 c81 -19 116 -47 135 -112 23 -75 10 -142 -35 -194 -17 -20 -14
-49 14 -121 20 -54 13 -67 -39 -67 -28 0 -60 40 -73 92 -4 14 -15 34 -26 44
-18 17 -19 16 -20 -27 -2 -72 -11 -92 -47 -103 -23 -6 -36 -6 -44 2 -9 9 -11
80 -9 249 1 131 5 241 7 245 8 13 59 9 137 -8z m2885 -41 c3 -45 3 -46 -73
-58 -77 -12 -75 -10 -75 -81 l0 -65 48 7 c26 3 52 7 57 8 6 0 10 -17 10 -39
l0 -40 -55 -10 c-54 -10 -55 -11 -58 -48 l-3 -37 75 0 76 0 0 -39 0 -39 -95
-7 c-52 -4 -106 -4 -120 -1 l-25 6 0 219 0 219 33 11 c43 14 168 39 187 37 10
-1 16 -15 18 -43z m-2558 27 c63 -6 130 -13 148 -16 32 -6 33 -7 30 -53 l-3
-46 -65 0 -65 0 -5 -185 c-3 -102 -9 -191 -13 -197 -5 -7 -24 -13 -42 -13
l-35 0 -2 208 -3 207 -54 7 c-57 7 -71 18 -71 59 0 45 -1 45 180 29z m348 -75
c89 -15 121 -34 163 -95 21 -31 24 -46 24 -126 0 -83 -2 -94 -27 -130 -48 -68
-85 -86 -192 -92 -66 -3 -95 -1 -101 7 -4 7 -4 111 0 232 9 253 -7 229 133
204z m1819 0 c22 -9 49 -31 63 -52 23 -33 25 -46 25 -138 0 -94 -2 -105 -28
-143 -44 -67 -98 -96 -188 -100 l-76 -4 -6 209 c-3 114 -2 212 2 216 9 9 89
24 138 26 18 0 50 -6 70 -14z m-273 -67 c3 -29 6 -121 6 -204 0 -168 -3 -178
-62 -172 -30 3 -39 12 -93 100 -33 54 -63 98 -67 98 -5 0 -8 -40 -8 -88 0 -55
-4 -92 -12 -100 -17 -17 -65 -15 -72 4 -3 9 -6 98 -6 200 l0 184 24 6 c61 15
78 4 133 -91 29 -49 57 -91 62 -93 7 -2 8 32 4 96 -6 110 -7 108 58 111 24 1
27 -3 33 -51z m-1066 6 l63 -6 -3 -32 -3 -31 -88 3 -88 4 3 -49 3 -48 63 -3
62 -3 0 -34 c0 -34 -1 -35 -42 -35 -73 0 -88 -8 -88 -46 l0 -33 88 -3 c87 -3
87 -3 90 -30 5 -40 -29 -49 -162 -46 l-111 3 -3 190 c-1 104 0 196 3 203 5 15
15 15 213 -4z m700 -21 l-3 -38 -55 -3 c-83 -4 -97 -9 -103 -38 -10 -55 -1
-64 69 -64 69 0 85 -11 65 -48 -7 -14 -25 -21 -67 -25 -31 -3 -58 -8 -61 -10
-2 -3 -5 -17 -6 -33 l-2 -29 83 -3 83 -3 -3 -32 -3 -32 -115 -5 c-63 -3 -119
-2 -124 2 -7 6 -10 368 -2 375 3 4 162 20 209 22 l38 1 -3 -37z m-300 -15 l-3
-33 -90 -5 -90 -5 0 -45 0 -45 73 -3 72 -3 0 -29 c0 -29 -1 -30 -52 -30 -95 0
-98 -3 -98 -80 0 -74 -5 -80 -61 -80 l-29 0 2 187 3 187 25 7 c14 3 76 7 138
8 l113 2 -3 -33z m1128 -713 c-11 -8 -26 -15 -34 -15 -8 0 -26 -7 -40 -15 -62
-33 -287 -109 -437 -146 -127 -32 -315 -69 -348 -69 -56 0 -18 13 91 32 225
38 501 117 687 196 78 33 112 40 81 17z m-2226 -155 c13 -9 13 -10 0 -9 -8 0
-24 4 -35 9 l-20 9 20 0 c11 0 27 -4 35 -9z m165 -40 l20 -9 -20 1 c-11 0 -31
4 -45 8 l-25 8 25 0 c14 0 34 -3 45 -8z m240 -40 c72 -11 201 -22 288 -26 86
-4 157 -11 157 -16 0 -21 -490 25 -610 57 -54 14 -54 14 -10 9 25 -3 104 -14
175 -24z m604 -34 c-11 -9 -129 -15 -129 -6 0 6 30 10 67 10 36 0 64 -2 62 -4z"/>
<path d="M4495 8520 c-13 -6 -15 -9 -5 -9 8 0 22 4 30 9 18 12 2 12 -25 0z"/>
<path d="M4951 8328 c1 -18 4 -46 8 -63 l7 -30 8 30 c5 17 10 45 11 63 3 26 0
32 -16 32 -15 0 -19 -7 -18 -32z"/>
<path d="M5280 8351 c0 -6 4 -12 9 -15 13 -8 42 4 35 15 -7 12 -44 12 -44 0z"/>
<path d="M4913 8223 c-13 -2 -23 -9 -23 -14 0 -14 26 -11 40 6 7 8 11 14 9 14
-2 -1 -14 -4 -26 -6z"/>
<path d="M4745 8154 c-6 -9 -33 -18 -65 -23 -30 -4 -84 -22 -120 -40 -74 -38
-75 -39 -68 -47 4 -3 37 11 74 30 47 25 80 36 111 36 42 0 83 25 83 50 0 14
-3 13 -15 -6z"/>
<path d="M4397 8083 c-4 -6 0 -16 8 -23 21 -17 28 -8 11 15 -8 11 -15 14 -19
8z"/>
<path d="M3713 7809 c14 -8 22 -8 30 0 8 8 3 11 -18 11 -26 -1 -28 -2 -12 -11z"/>
<path d="M3530 7783 c-8 -4 -21 -12 -28 -20 -7 -7 -21 -13 -30 -13 -12 0 -13
-3 -4 -12 9 -9 16 -8 29 4 10 8 24 13 32 10 12 -4 30 13 31 31 0 8 -8 8 -30 0z"/>
<path d="M4150 7769 c0 -5 5 -7 10 -4 6 3 10 8 10 11 0 2 -4 4 -10 4 -5 0 -10
-5 -10 -11z"/>
<path d="M4219 7459 l-255 -129 -100 -5 c-91 -4 -99 -6 -102 -26 -4 -20 -1
-21 110 -17 l113 3 245 123 c135 67 251 127 258 132 6 6 12 20 12 30 0 11 -6
20 -12 19 -7 0 -128 -59 -269 -130z"/>
<path d="M3576 7546 c3 -9 11 -16 16 -16 13 0 5 23 -10 28 -7 2 -10 -2 -6 -12z"/>
<path d="M3362 7322 c-53 -3 -63 -6 -60 -20 3 -15 21 -17 148 -20 79 -1 150 0
156 2 7 3 10 14 7 26 -6 22 -20 23 -251 12z"/>
<path d="M3640 7300 c0 -16 7 -20 35 -20 28 0 35 4 35 20 0 16 -7 20 -35 20
-28 0 -35 -4 -35 -20z"/>
<path d="M4882 7079 c-17 -5 -53 -22 -80 -37 -26 -15 -60 -33 -77 -41 -16 -7
-46 -22 -65 -33 -19 -10 -82 -41 -140 -69 -176 -84 -424 -211 -441 -225 -9 -8
-19 -11 -22 -7 -4 3 -6 -70 -6 -163 2 -211 2 -204 -18 -204 -10 0 -98 40 -195
89 l-178 90 0 -821 c0 -452 -2 -824 -5 -826 -3 -3 0 -11 6 -19 8 -8 8 -17 2
-25 -16 -21 1 -141 26 -182 27 -42 108 -112 171 -146 25 -13 151 -85 280 -160
461 -268 630 -361 641 -354 7 4 9 3 6 -3 -4 -6 28 -31 72 -56 83 -48 107 -51
171 -17 45 24 521 295 745 425 121 70 247 143 280 162 33 19 74 45 91 58 42
32 91 128 103 205 6 40 12 386 15 885 2 451 7 830 11 843 7 20 -16 11 -166
-66 -166 -85 -175 -91 -198 -135 -13 -26 -29 -44 -34 -40 -6 4 -8 0 -4 -9 3
-9 -1 -24 -8 -35 -13 -16 -14 -15 -15 17 0 19 -3 117 -6 216 l-5 182 30 10
c35 12 37 18 16 59 -16 32 -54 61 -150 114 -85 47 -377 193 -417 209 -18 8
-53 26 -78 40 -59 34 -153 67 -210 74 -34 5 -40 4 -25 -4 15 -8 11 -9 -20 -5
-22 4 -47 8 -55 10 -8 1 -30 -1 -48 -6z m248 -430 c310 -162 376 -197 405
-213 17 -9 35 -16 41 -16 18 0 26 -30 10 -36 -12 -5 -352 160 -366 177 -3 4
-16 10 -30 15 -25 8 -33 10 -58 12 -7 1 -10 7 -6 14 4 6 3 8 -4 5 -12 -8 -44
2 -38 12 8 12 -68 8 -81 -5 -9 -9 -13 -45 -13 -118 0 -58 2 -106 5 -106 9 0
147 96 179 124 16 14 34 26 40 26 17 -1 -62 -67 -151 -125 -76 -51 -81 -56
-80 -89 1 -24 7 -38 21 -45 12 -6 35 -19 51 -29 17 -10 56 -33 88 -52 32 -19
71 -42 85 -51 15 -9 29 -24 31 -35 3 -16 0 -15 -17 6 -19 23 -32 17 -14 -6 4
-5 -7 7 -25 26 -18 19 -32 29 -33 22 0 -7 7 -15 15 -18 8 -4 15 -10 15 -15 0
-5 -9 -4 -20 3 -11 7 -20 21 -20 30 0 10 -2 18 -4 18 -2 0 -13 3 -23 6 -17 5
-17 5 0 -6 9 -6 17 -15 17 -21 0 -5 -9 -4 -20 3 -11 7 -20 18 -20 24 0 6 -7
17 -15 24 -10 9 -15 9 -15 1 0 -6 5 -11 10 -11 6 0 10 -4 10 -10 0 -9 -78 29
-107 53 -10 7 -13 -166 -13 -862 0 -479 3 -871 8 -871 4 0 25 12 45 26 21 14
41 23 44 21 3 -3 -20 -20 -51 -38 l-57 -31 3 -104 c2 -56 6 -106 10 -109 3 -4
29 5 57 19 69 36 65 25 -6 -13 l-57 -31 -275 154 c-152 84 -307 169 -346 189
-38 19 -77 43 -86 53 -31 36 -219 409 -219 434 0 15 6 49 14 76 8 27 17 69 21
94 4 25 13 72 21 105 8 33 23 94 33 135 10 41 28 118 40 170 11 52 29 133 40
180 10 47 26 119 35 160 42 193 94 411 98 415 3 3 184 96 477 246 74 38 137
69 140 69 4 0 76 -36 161 -81z m160 -543 c0 -8 -4 -18 -10 -21 -5 -3 -10 3
-10 14 0 12 5 21 10 21 6 0 10 -6 10 -14z m50 -27 c0 -5 6 -9 13 -7 19 4 97
-45 97 -62 -1 -12 -3 -11 -14 3 -11 14 -15 15 -19 5 -3 -8 -6 -6 -6 5 -1 10
-6 15 -12 12 -6 -4 -17 1 -24 11 -11 15 -14 16 -15 4 0 -10 -9 -4 -26 15 -15
18 -23 23 -20 12 3 -11 2 -15 -4 -12 -6 3 -10 15 -10 26 0 17 3 18 20 9 11 -6
20 -15 20 -21z m180 -77 c22 3 27 2 19 -8 -13 -16 -49 -25 -49 -12 0 5 -4 6
-10 3 -5 -3 -10 -4 -10 -1 0 2 -3 13 -7 23 -6 16 -5 16 10 4 9 -7 30 -11 47
-9z m504 -188 c6 -15 4 -15 -10 -3 -14 11 -18 11 -30 -6 -15 -20 -18 -17 -8 9
8 21 40 21 48 0z m-401 -217 l4 -108 -44 -26 c-31 -18 -41 -29 -34 -36 6 -6
11 -18 11 -26 -1 -13 -3 -13 -15 2 -12 16 -18 17 -47 8 -76 -26 -96 -68 -138
-282 -12 -64 -28 -82 -113 -129 -79 -44 -83 -33 -4 13 34 21 68 41 75 46 8 4
26 72 42 151 34 167 35 169 162 241 l88 51 1 116 c2 138 6 130 12 -21z m-1624
-22 c3 -17 1 -18 -12 -6 -14 11 -19 8 -37 -21 -19 -31 -20 -31 -20 -9 0 50 60
81 69 36z m2127 -587 c-18 -26 -22 -17 -5 14 6 11 13 17 16 15 3 -3 -2 -16
-11 -29z m-36 -145 c-11 -17 -11 -17 -6 0 3 10 7 26 7 35 1 15 2 15 6 0 2 -10
-1 -25 -7 -35z m-500 2 c-7 -8 -18 -15 -24 -15 -6 0 -2 7 8 15 25 19 32 19 16
0z m-65 -34 c-6 -11 -230 -141 -242 -141 -12 0 28 26 139 90 111 64 112 65
103 51z m-274 -161 c-22 -19 -41 -26 -41 -15 0 5 51 34 60 34 3 0 -6 -9 -19
-19z m-70 -40 c-13 -11 -28 -20 -35 -20 -6 0 3 9 19 20 38 25 47 25 16 0z
m-61 -35 c-7 -8 -18 -15 -24 -15 -6 0 -2 7 8 15 25 19 32 19 16 0z m96 -190
c-11 -8 -25 -15 -30 -15 -6 1 0 7 14 15 32 19 40 18 16 0z m-56 -30 c0 -2 -13
-11 -30 -20 -38 -19 -40 -11 -2 9 31 17 32 18 32 11z m-213 -502 c-5 -5 -97
45 -97 53 0 2 23 -7 51 -22 28 -14 49 -28 46 -31z"/>
<path d="M4995 6260 c22 -24 75 -55 75 -43 0 5 -22 21 -48 37 -40 24 -44 25
-27 6z"/>
<path d="M4358 5692 c1 -53 5 -119 8 -147 l5 -50 96 -50 c73 -38 98 -56 104
-75 4 -14 17 -68 29 -120 36 -155 51 -180 120 -214 33 -17 61 -28 64 -25 2 2
6 123 8 268 l3 265 -55 31 c-51 30 -216 121 -335 186 l-50 28 3 -97z"/>
<path d="M4330 4893 c1 -16 54 -48 373 -230 4 -2 7 3 7 11 0 9 -15 22 -32 31
-18 8 -53 26 -78 41 -25 14 -81 46 -125 71 -44 25 -95 54 -112 65 -18 11 -33
16 -33 11z"/>
<path d="M6539 6913 c-13 -16 -12 -17 4 -4 9 7 17 15 17 17 0 8 -8 3 -21 -13z"/>
<path d="M4002 6650 c0 -14 2 -19 5 -12 2 6 2 18 0 25 -3 6 -5 1 -5 -13z"/>
<path d="M3706 6498 c208 -111 333 -174 320 -159 -9 10 -16 26 -16 36 0 13 -3
15 -13 6 -10 -8 -22 -5 -47 14 -19 14 -44 25 -55 25 -12 0 -30 9 -40 20 -10
11 -23 20 -29 20 -6 0 -42 16 -80 35 -85 44 -119 46 -40 3z"/>
<path d="M3464 5908 l-19 -23 23 19 c21 18 27 26 19 26 -2 0 -12 -10 -23 -22z"/>
<path d="M3443 5163 c9 -2 23 -2 30 0 6 3 -1 5 -18 5 -16 0 -22 -2 -12 -5z"/>
<path d="M3393 5123 c20 -2 54 -2 75 0 20 2 3 4 -38 4 -41 0 -58 -2 -37 -4z"/>
<path d="M3388 4943 c17 -2 47 -2 65 0 17 2 3 4 -33 4 -36 0 -50 -2 -32 -4z"/>
<path d="M5420 7970 c-8 -5 -12 -12 -9 -15 8 -8 39 5 39 16 0 11 -11 11 -30
-1z"/>
<path d="M2800 7659 c0 -7 -7 -21 -17 -31 -22 -24 -15 -28 27 -14 42 13 50 49
13 54 -13 2 -23 -2 -23 -9z"/>
<path d="M2186 6774 c-3 -9 -6 -17 -6 -18 0 -2 13 -3 30 -4 27 -1 28 1 17 19
-14 23 -33 25 -41 3z"/>
<path d="M2470 6650 c0 -5 6 -10 14 -10 8 0 18 5 21 10 3 6 -3 10 -14 10 -12
0 -21 -4 -21 -10z"/>
<path d="M2153 6419 c-29 -11 -53 -25 -53 -30 0 -13 6 -12 73 12 42 15 72 19
101 15 38 -6 40 -5 22 9 -27 20 -80 18 -143 -6z"/>
<path d="M7202 6225 c0 -19 4 -35 9 -35 5 0 9 16 9 35 0 19 -4 35 -9 35 -5 0
-9 -16 -9 -35z"/>
<path d="M7240 6249 c0 -5 5 -7 10 -4 6 3 10 8 10 11 0 2 -4 4 -10 4 -5 0 -10
-5 -10 -11z"/>
<path d="M7242 6210 c0 -14 2 -19 5 -12 2 6 2 18 0 25 -3 6 -5 1 -5 -13z"/>
<path d="M7571 5892 c-7 -13 -11 -37 -9 -55 l4 -32 12 43 c15 51 11 77 -7 44z"/>
<path d="M3120 4496 c0 -9 7 -16 16 -16 9 0 14 5 12 12 -6 18 -28 21 -28 4z"/>
<path d="M3256 2794 c-15 -36 -24 -69 -21 -75 8 -12 51 -12 75 1 18 10 18 13
5 51 -8 23 -15 50 -15 60 0 41 -20 25 -44 -37z"/>
<path d="M6687 2983 c-4 -3 -7 -46 -7 -95 l0 -88 28 0 c41 0 64 30 64 84 0 65
-9 83 -44 95 -37 13 -33 13 -41 4z"/>
<path d="M3617 2943 c-4 -3 -7 -42 -7 -85 0 -77 0 -78 26 -78 40 0 63 18 70
55 11 58 -23 115 -69 115 -7 0 -17 -3 -20 -7z"/>
<path d="M4284 2857 c-2 -7 -3 -69 -2 -138 l3 -124 38 1 c122 4 148 203 33
255 -49 22 -65 23 -72 6z"/>
<path d="M6030 2745 c0 -140 4 -149 59 -121 49 26 66 61 65 133 -1 79 -26 113
-86 113 l-38 0 0 -125z"/>
<path d="M5351 8876 c2 -2 27 -6 54 -9 32 -4 43 -3 30 3 -19 8 -93 14 -84 6z"/>
<path d="M5508 8853 c7 -3 16 -2 19 1 4 3 -2 6 -13 5 -11 0 -14 -3 -6 -6z"/>
<path d="M4736 8826 c-14 -23 -14 -26 4 -48 l19 -23 31 31 c37 36 32 64 -10
64 -18 0 -33 -8 -44 -24z"/>
<path d="M5568 8843 c7 -3 16 -2 19 1 4 3 -2 6 -13 5 -11 0 -14 -3 -6 -6z"/>
<path d="M5628 8833 c6 -2 18 -2 25 0 6 3 1 5 -13 5 -14 0 -19 -2 -12 -5z"/>
<path d="M5678 8823 c6 -2 18 -2 25 0 6 3 1 5 -13 5 -14 0 -19 -2 -12 -5z"/>
<path d="M5765 8805 c28 -8 57 -14 65 -14 26 1 -22 16 -70 22 l-45 7 50 -15z"/>
<path d="M5202 8798 c-26 -26 -13 -38 39 -38 47 0 50 2 47 23 -2 17 -10 23
-38 25 -19 2 -41 -3 -48 -10z"/>
<path d="M5870 8780 c34 -11 60 -11 35 0 -11 5 -29 8 -40 8 -16 0 -15 -2 5 -8z"/>
<path d="M5938 8763 c7 -3 16 -2 19 1 4 3 -2 6 -13 5 -11 0 -14 -3 -6 -6z"/>
<path d="M5970 8757 c3 -2 53 -21 112 -41 59 -21 173 -64 254 -97 81 -32 153
-59 158 -59 15 1 -345 146 -419 170 -85 26 -111 33 -105 27z"/>
<path d="M6160 8614 c0 -7 71 -36 76 -31 2 2 -14 11 -36 20 -22 8 -40 13 -40
11z"/>
<path d="M6557 8529 c7 -7 15 -10 18 -7 3 3 -2 9 -12 12 -14 6 -15 5 -6 -5z"/>
<path d="M6611 8507 c2 -2 18 -11 34 -21 l30 -17 -24 20 c-13 12 -28 21 -34
21 -6 0 -8 -1 -6 -3z"/>
<path d="M6720 8445 c0 -2 10 -10 23 -16 20 -11 21 -11 8 4 -13 16 -31 23 -31
12z"/>
<path d="M6775 8410 c3 -6 24 -19 46 -30 29 -13 37 -15 29 -4 -7 7 -18 14 -25
14 -7 0 -18 7 -25 15 -14 17 -35 21 -25 5z"/>
<path d="M6880 8352 c0 -4 19 -18 41 -30 23 -13 39 -19 35 -14 -8 14 -76 53
-76 44z"/>
<path d="M6981 8287 c2 -1 13 -9 24 -17 19 -14 19 -14 6 3 -7 9 -18 17 -24 17
-6 0 -8 -1 -6 -3z"/>
<path d="M7050 8241 c50 -42 115 -85 101 -68 -8 10 -32 30 -55 45 -56 38 -76
48 -46 23z"/>
<path d="M7180 8147 c0 -3 21 -22 48 -43 26 -21 38 -28 27 -15 -21 24 -75 66
-75 58z"/>
<path d="M7290 8056 c0 -2 8 -10 18 -17 15 -13 16 -12 3 4 -13 16 -21 21 -21
13z"/>
<path d="M7370 7985 c19 -19 36 -35 39 -35 3 0 -10 16 -29 35 -19 19 -36 35
-39 35 -3 0 10 -16 29 -35z"/>
<path d="M2459 7883 l-24 -28 28 24 c25 23 32 31 24 31 -2 0 -14 -12 -28 -27z"/>
<path d="M2380 7805 c-19 -19 -30 -35 -24 -35 5 0 22 16 37 35 36 45 30 45
-13 0z"/>
<path d="M7610 7745 c19 -19 36 -35 39 -35 3 0 -10 16 -29 35 -19 19 -36 35
-39 35 -3 0 10 -16 29 -35z"/>
<path d="M8000 7236 c0 -8 42 -76 46 -76 3 0 -5 18 -16 40 -18 35 -30 49 -30
36z"/>
<path d="M8156 6967 c3 -10 9 -15 12 -12 3 3 0 11 -7 18 -10 9 -11 8 -5 -6z"/>
<path d="M8225 6838 c26 -63 105 -221 105 -211 0 13 -108 243 -114 243 -3 0 1
-15 9 -32z"/>
<path d="M1635 6649 c-4 -6 -5 -12 -2 -15 2 -3 7 2 10 11 7 17 1 20 -8 4z"/>
<path d="M8340 6589 c0 -4 7 -22 15 -40 8 -19 14 -27 14 -19 0 14 -28 72 -29
59z"/>
<path d="M8380 6463 c0 -29 23 -83 35 -83 19 0 19 2 -6 50 -20 38 -29 48 -29
33z"/>
<path d="M1551 6419 c-6 -18 -9 -34 -7 -36 2 -2 9 10 15 28 6 18 9 34 7 36 -2
2 -9 -10 -15 -28z"/>
<path d="M1482 6328 c-15 -19 -42 -135 -41 -176 1 -27 6 -15 19 48 10 47 23
97 29 113 11 29 9 34 -7 15z"/>
<path d="M1521 6326 c-9 -11 -3 -16 33 -25 60 -15 61 -15 30 14 -30 28 -46 31
-63 11z"/>
<path d="M1550 6187 c0 -40 -22 -66 -59 -69 -29 -2 -37 -8 -39 -25 -3 -21 0
-22 30 -17 18 3 38 7 43 9 13 3 40 103 31 112 -3 4 -6 -1 -6 -10z"/>
<path d="M1442 6030 c0 -14 2 -19 5 -12 2 6 2 18 0 25 -3 6 -5 1 -5 -13z"/>
<path d="M1410 5951 c0 -5 8 -8 18 -7 11 1 17 -6 17 -19 0 -26 -35 -34 -36 -8
0 10 -5 3 -11 -16 -13 -45 -4 -61 32 -61 33 0 70 30 70 58 -1 26 -90 79 -90
53z"/>
<path d="M1382 5675 c0 -16 2 -22 5 -12 2 9 2 23 0 30 -3 6 -5 -1 -5 -18z"/>
</g>
</svg>
